<?xml version="1.0" encoding="UTF-8"?><svg id="Calque_1" xmlns="http://www.w3.org/2000/svg" viewBox="0 0 210 375"><defs><style>.cls-1{letter-spacing:.04em;}.cls-2{fill:#eaeae4;font-size:26.97px;}.cls-2,.cls-3,.cls-4{font-family:CleoFolkDemo-Regular, 'Cleo Folk Demo';}.cls-5{letter-spacing:.05em;}.cls-6{letter-spacing:-.01em;}.cls-7{letter-spacing:0em;}.cls-8{fill:none;stroke:#000;stroke-miterlimit:10;stroke-width:8px;}.cls-9{letter-spacing:.05em;}.cls-3{font-size:23.62px;}.cls-10{letter-spacing:0em;}.cls-4{font-size:8.11px;}.cls-11{letter-spacing:.01em;}.cls-12{fill:#f50101;}.cls-13{letter-spacing:0em;}</style></defs><rect class="cls-8" x="4" y="4" width="202" height="367" rx="27.53" ry="27.53"/><path d="M63.46,4h83.08v6c0,6.62-5.38,12-12,12h-59.08c-6.62,0-12-5.38-12-12V4h0Z"/><rect class="cls-12" x="56.85" y="146.15" width="97.15" height="97.15" rx="17.9" ry="17.9"/><g><text class="cls-2" transform="translate(75.57 213.17)"><tspan x="0" y="0">T</tspan><tspan class="cls-5" x="18.34" y="0">o</tspan><tspan class="cls-1" x="30.99" y="0">o</tspan><tspan class="cls-9" x="43.37" y="0">n</tspan></text><text class="cls-2" transform="translate(79.13 193.24)"><tspan class="cls-10" x="0" y="0">F</tspan><tspan class="cls-5" x="14.56" y="0">a</tspan><tspan class="cls-1" x="29.05" y="0">s</tspan><tspan class="cls-5" x="41.35" y="0">t</tspan></text></g><text class="cls-3" transform="translate(56.62 106.39)"><tspan x="0" y="0">Dis</tspan><tspan class="cls-11" x="28.81" y="0">p</tspan><tspan class="cls-6" x="40.76" y="0">o</tspan><tspan class="cls-7" x="50.42" y="0">ni</tspan><tspan class="cls-13" x="69.12" y="0">bl</tspan><tspan x="86.43" y="0">e</tspan><tspan x="6.53" y="28.34">sur l </tspan><tspan class="cls-6" x="55.84" y="28.34">a</tspan><tspan x="67.1" y="28.34">pp</tspan></text><text class="cls-4" transform="translate(108.48 121.67) rotate(19.66) scale(1.99 1)"><tspan x="0" y="0">l</tspan></text></svg>