<svg width="41" height="44" viewBox="0 0 41 44" fill="none" xmlns="http://www.w3.org/2000/svg">
<g clip-path="url(#clip0_11_8)">
<path d="M41 20.043C41 12.715 35.6562 0 20.7303 0C4.69889 0 7.6472 8.95708 7.6472 8.95708C7.6472 8.95708 3.22473 9.89657 3.22473 14.7819C3.22473 17.1588 4.14608 18.9476 4.5312 19.594C4.63255 19.765 4.68046 19.9622 4.66756 20.1614V20.1652C3.63565 21.255 -0.00183105 25.4075 -0.00183105 29.8156C-0.00183105 32.1775 1.01902 35.7851 3.88073 38.8309C6.09749 41.1891 10.2122 44.0019 17.2274 44.0019C23.7616 44.0019 28.0366 41.0669 30.4727 38.6055C32.5697 36.486 33.6827 34.3853 34.0733 33.5566C34.1157 33.5623 34.1562 33.5717 34.1986 33.5773C34.2797 33.5848 34.3608 33.5905 34.4419 33.5905C35.1697 33.5905 35.8663 33.256 36.5149 32.5927C37.1248 31.9708 37.3865 31.206 37.2815 30.3643C37.2612 30.2008 37.3201 30.0392 37.4399 29.9302C38.3576 29.0809 41 26.1046 41 20.0487V20.043ZM5.36226 20.3474C5.89848 18.4478 7.19021 13.7071 10.1348 10.93C10.1348 10.93 10.9641 11.2119 16.1236 11.2119C20.5958 11.2119 23.8224 11.4937 25.2026 13.2825C25.3813 13.5136 25.7425 13.3633 25.7185 13.0702C25.6448 12.1701 25.3555 10.8793 24.4157 9.70867C24.4157 9.70867 30.1281 11.024 30.1281 17.4125C30.1281 22.8615 28.8382 22.2978 28.8382 24.7405C28.8382 27.1832 29.391 27.7469 29.391 29.25C29.391 30.7532 29.391 31.129 29.9438 31.129C30.4966 31.129 31.7865 27.1832 34.5506 27.1832C35.6562 27.1832 35.2877 28.1226 35.2877 28.1226C35.2877 28.1226 33.0764 27.9347 33.0764 28.8742C33.0764 29.25 33.6292 28.6863 34.5506 28.6863C35.3374 28.6863 36.1224 29.7799 36.3343 30.0993C36.3232 30.1613 36.3232 30.2252 36.3361 30.2891C36.4725 30.9261 36.3196 31.4597 35.8644 31.9238C35.3485 32.4499 34.8196 32.6904 34.2944 32.6397C33.2478 32.5364 32.4536 31.3488 32.4444 31.3376C32.3025 31.1215 32.0169 31.0632 31.8068 31.2079C31.5949 31.3526 31.5378 31.6438 31.6797 31.8599C31.711 31.9088 32.2804 32.7675 33.1907 33.2541C32.2417 35.1857 27.7215 43.0605 17.2292 43.0605C4.90711 43.0605 0.92136 34.1354 0.92136 29.8137C0.92136 26.1648 3.78675 22.5477 5.01952 21.1629C5.01952 21.1629 5.38253 20.7477 5.36226 20.3493V20.3474Z" fill="#F50101"/>
<path d="M19.809 33.3838C17.782 31.6927 17.782 33.7596 12.991 31.3169C8.78964 29.1749 8.56851 26.6195 5.80447 26.8074C3.04042 26.9953 1.56627 34.6991 9.48986 38.2691C18.2371 42.2094 23.3396 36.33 19.809 33.3838ZM5.98874 34.6991C8.93705 31.3169 12.3202 34.1335 12.3202 34.1335C12.3202 34.1335 10.7797 34.3233 10.964 34.887C11.1483 35.4507 11.5168 34.6991 14.3933 34.6991C17.2697 34.6991 18.6536 38.0681 18.6536 38.0681C12.3387 41.4352 5.98874 34.6991 5.98874 34.6991Z" fill="#F50101"/>
<path d="M13.7262 27.7468C12.7422 27.7468 11.4247 26.5856 11.4247 25.4C11.4247 24.2144 12.1747 22.9573 13.8202 22.9573C15.2133 22.9573 15.8693 24.1261 16.0204 24.7442C16.0701 24.9453 15.9503 25.1501 15.7513 25.2008C15.5542 25.2516 15.3552 25.1294 15.3054 24.9284C15.2907 24.872 14.9774 23.7089 13.8202 23.7089C12.5966 23.7089 12.1618 24.6202 12.1618 25.4C12.1618 26.1403 13.1089 26.9953 13.7262 26.9953C14.2495 26.9953 14.4301 26.8712 14.4559 26.8506C14.5757 26.704 14.7858 26.6702 14.9442 26.7773C15.1138 26.8919 15.158 27.1268 15.0456 27.2978C14.9774 27.403 14.677 27.745 13.7244 27.745L13.7262 27.7468Z" fill="#F50101"/>
<path d="M23.2179 23.1433C22.4809 24.2707 22.6651 27.2771 21.0491 27.3691C19.9859 27.4312 19.8237 25.8209 20.137 24.1354C20.1609 24.0058 20.2531 23.9006 20.3765 23.8592L20.9551 23.6619C21.1726 23.5886 21.2665 23.3293 21.1504 23.1283L20.7579 22.4462C20.7008 22.3466 20.6916 22.2226 20.7358 22.1174C20.8003 21.9652 20.8685 21.8205 20.9385 21.6834C21.976 19.6616 23.6749 17.9912 24.6921 18.8217C25.6135 19.5733 23.955 22.0159 23.2179 23.1433Z" fill="#F50101"/>
<path d="M10.6305 19.609C9.94868 20.6518 10.1182 23.4327 8.62378 23.5173C7.63978 23.5736 7.49052 22.0855 7.77982 20.5259C7.80194 20.4057 7.88854 20.308 8.00095 20.2704L8.53533 20.0881C8.73618 20.0205 8.82463 19.78 8.71591 19.594L8.3529 18.9626C8.29946 18.8705 8.29025 18.7559 8.33263 18.6582C8.3916 18.5173 8.45609 18.3839 8.52059 18.2561C9.48063 16.3865 11.0525 14.8401 11.9922 15.6086C12.8454 16.3039 11.3104 18.5643 10.6286 19.6071L10.6305 19.609Z" fill="#F50101"/>
</g>
<defs>
<clipPath id="clip0_11_8">
<rect width="41" height="44" fill="white"/>
</clipPath>
</defs>
</svg>
