<svg width="87" height="67" viewBox="0 0 87 67" fill="none" xmlns="http://www.w3.org/2000/svg">
<g clip-path="url(#clip0_36_12702)">
<path d="M77.5003 5.35096C75.3321 5.66818 74.8843 6.22147 74.6812 9.65681C74.6738 9.7773 74.4952 9.7773 74.4879 9.65681C74.2823 6.22147 73.8345 5.66818 71.6688 5.35096C71.5587 5.33375 71.5587 5.17637 71.6688 5.15915C73.8369 4.84193 74.2847 4.28864 74.4879 0.853311C74.4952 0.732816 74.6738 0.732816 74.6812 0.853311C74.8867 4.28864 75.3346 4.84193 77.5003 5.15915C77.6104 5.17637 77.6104 5.33375 77.5003 5.35096Z" fill="#F50101"/>
<path d="M79.294 10.2716C78.0754 10.4486 77.8233 10.7609 77.7083 12.6938C77.7034 12.7626 77.6031 12.7626 77.6006 12.6938C77.4856 10.7609 77.2335 10.4511 76.0149 10.2716C75.9537 10.2617 75.9537 10.1732 76.0149 10.1634C77.2335 9.98632 77.4856 9.67402 77.6006 7.74119C77.6055 7.67233 77.7058 7.67233 77.7083 7.74119C77.8233 9.67402 78.0754 9.98386 79.294 10.1634C79.3552 10.1732 79.3552 10.2617 79.294 10.2716Z" fill="#F50101"/>
<path d="M43.6518 67C32.6936 67 22.3741 65.4705 14.5996 62.6942C6.50699 59.8048 2.05078 55.8309 2.05078 51.5078C2.05078 50.9644 2.48882 50.5242 3.02963 50.5242C3.3086 50.5242 3.56065 50.6422 3.73929 50.8291C5.6921 51.4611 20.0714 52.1152 43.6518 52.1152C67.2323 52.1152 81.6115 51.4611 83.5643 50.8291C83.743 50.6398 83.995 50.5242 84.274 50.5242C84.8148 50.5242 85.2529 50.9644 85.2529 51.5078C85.2529 55.8309 80.7966 59.8023 72.704 62.6942C64.9295 65.4705 54.61 67 43.6518 67ZM4.25074 52.939C5.22959 55.8284 9.11806 58.6465 15.253 60.8376C22.8244 63.5425 32.909 65.0303 43.6494 65.0303C54.3898 65.0303 64.4744 63.5401 72.0457 60.8376C78.1807 58.6465 82.0716 55.8284 83.048 52.939C82.4558 53.03 81.7315 53.1038 80.8652 53.1825C78.7044 53.3767 75.5892 53.5439 71.6077 53.6841C64.2296 53.9399 54.2992 54.0825 43.6469 54.0825C32.9946 54.0825 23.0642 53.9399 15.6861 53.6841C11.7047 53.5464 8.59193 53.3767 6.42868 53.1825C5.5624 53.1038 4.8405 53.03 4.24585 52.939H4.25074Z" fill="#F50101"/>
<path d="M43.6517 54.0751C31.8688 54.0751 20.0884 53.7923 8.38872 53.2267C6.24015 53.212 4.4978 51.4537 4.4978 49.2922V46.3413C4.4978 44.1773 6.24505 42.4142 8.39851 42.4068C11.2763 42.3232 14.274 42.2494 17.3109 42.183C21.5518 42.0896 25.9933 42.0182 30.5082 41.9715L30.5205 42.9552V43.9388C26.0202 43.9855 21.586 44.0568 17.3525 44.1503C14.3156 44.2167 11.3179 44.2904 8.44256 44.374C8.43277 44.374 8.42298 44.374 8.41319 44.374C7.33401 44.374 6.4555 45.2569 6.4555 46.3413V49.2922C6.4555 50.3767 7.33401 51.2595 8.41319 51.2595C8.42788 51.2595 8.44501 51.2595 8.45969 51.2595C31.8101 52.3882 55.4909 52.3882 78.8437 51.2595C78.8584 51.2595 78.8756 51.2595 78.8902 51.2595C79.9694 51.2595 80.8479 50.3767 80.8479 49.2922V46.3413C80.8479 45.4733 80.2655 44.6986 79.4335 44.4527C79.2475 44.3986 79.0542 44.3814 78.8609 44.374C78.4424 44.3618 78.024 44.3495 77.6031 44.3396C77.0622 44.3273 76.634 43.8773 76.6462 43.3339C76.6585 42.7978 77.094 42.3724 77.6251 42.3724C77.6324 42.3724 77.6398 42.3724 77.6471 42.3724C78.0656 42.3822 78.484 42.3945 78.9025 42.4068C79.2695 42.4068 79.6317 42.4609 79.9817 42.5642C81.6432 43.0535 82.8032 44.6052 82.8032 46.3413V49.2922C82.8032 51.4537 81.0608 53.212 78.9123 53.2267C67.2126 53.7923 55.4297 54.0751 43.6493 54.0751H43.6517Z" fill="#F50101"/>
<path d="M43.6518 48.2225C43.5955 48.2225 43.5392 48.2176 43.4853 48.2077L26.2234 45.2052C25.6899 45.1117 25.3326 44.6027 25.4256 44.0691C25.5186 43.533 26.0227 43.174 26.5562 43.2674L43.6518 46.2405L72.7676 41.2461C72.8214 41.2362 72.8777 41.2313 72.9315 41.2313C73.4724 41.2313 73.9128 41.6715 73.9128 42.215C73.9128 42.7166 73.5409 43.1297 73.0588 43.1912L43.8133 48.2077C43.7594 48.2176 43.7031 48.2225 43.6493 48.2225H43.6518Z" fill="#F50101"/>
<path d="M16.518 43.5035C16.4617 43.5035 16.4054 43.4986 16.3516 43.4888L7.92124 42.0182C7.69855 41.9936 7.4881 41.8928 7.32904 41.733C6.94729 41.3494 6.94729 40.7272 7.32904 40.3411C7.51747 40.1518 7.76707 40.0534 8.01423 40.0534C8.07296 40.0534 8.13414 40.0584 8.19287 40.0682L16.6403 41.5412C16.726 41.551 16.8141 41.5731 16.8973 41.61C17.2619 41.7625 17.5017 42.1215 17.5017 42.5199C17.5017 43.0609 17.0661 43.5011 16.5278 43.5035H16.5204H16.518Z" fill="#F50101"/>
<path d="M43.62 39.7657C40.6321 39.7657 37.6099 39.7411 34.5999 39.692C26.3654 39.5567 19.1243 39.2469 13.6648 38.7944C5.2614 38.0985 3.34285 37.2821 2.60872 36.6501C2.14866 36.2517 2.05322 35.8165 2.05322 35.5238C2.10706 28.5204 6.52411 21.9866 14.487 17.1176C22.3031 12.3372 32.6618 9.70352 43.6543 9.70352C54.6467 9.70352 65.0054 12.3372 72.8215 17.1176C80.7844 21.9891 85.199 28.5228 85.2553 35.5164V35.5238C85.2553 36.8148 84.0171 37.6583 77.4832 38.4182C70.1884 39.269 57.2774 39.7657 43.6224 39.7657H43.62ZM4.01337 35.2435C4.50034 35.514 6.43846 36.2222 13.8239 36.8345C19.2442 37.2821 26.4388 37.5919 34.6317 37.7247C51.3113 37.9977 68.4411 37.4911 77.2557 36.4632C81.5944 35.9591 82.9134 35.4476 83.2903 35.241C82.9305 22.2178 65.2501 11.6683 43.6518 11.6683C22.0535 11.6683 4.37065 22.2202 4.01337 35.2435Z" fill="#F50101"/>
<path d="M22.511 45.7388C20.6096 45.7388 18.7033 45.3257 17.0245 44.1601C16.677 43.9191 16.3614 43.6584 16.0555 43.4052C15.6762 43.0929 15.3189 42.7978 14.9396 42.5715C13.5398 41.7305 11.6947 41.7404 10.0723 41.8609C9.78595 41.883 9.49474 41.9076 9.20598 41.9322C7.5713 42.0748 5.88034 42.2199 4.19428 41.8018C2.16317 41.2953 -0.457697 39.5321 0.0708808 37.1911C0.342511 35.9812 1.35562 35.2214 3.08818 34.9336C3.37449 34.8869 3.6657 34.9681 3.88594 35.1574C4.06947 35.3148 5.40805 36.1386 13.8286 36.8345C19.249 37.2821 26.4435 37.5919 34.6364 37.7247C51.3185 37.9977 68.4459 37.4911 77.2604 36.4632C77.2995 36.4583 77.3411 36.4558 77.3803 36.4558C80.0721 36.4779 83.4222 36.505 86.0431 38.3444C86.2438 38.4845 86.7772 38.8583 86.951 39.51C87.1541 40.3116 86.7161 40.9781 86.5692 41.1994C85.145 43.3634 82.3895 44.588 79.1936 44.4896C77.1356 44.4232 75.1681 43.8675 73.2667 43.3265C72.7503 43.1814 72.2364 43.0338 71.7201 42.8986C69.7379 42.3773 67.1758 41.8707 64.9367 42.5986C64.6137 42.7043 64.2882 42.8371 63.9456 42.9773C63.3754 43.2109 62.7881 43.4519 62.1372 43.5921C59.8858 44.0814 57.7617 43.2453 55.7086 42.4387C53.746 41.6666 51.8935 40.9387 50.183 41.4846C49.5663 41.6813 48.9717 42.0502 48.3428 42.4387C47.43 43.0043 46.4854 43.5871 45.3181 43.7617C43.8988 43.9732 42.6263 43.5207 41.3929 43.083C40.9255 42.9183 40.4851 42.7609 40.047 42.6453C36.9147 41.8092 33.545 42.9601 30.283 44.074C29.9184 44.1994 29.5538 44.3224 29.1916 44.4429C27.2926 45.0773 24.9067 45.7364 22.5085 45.7364L22.511 45.7388ZM11.4794 39.8346C12.9868 39.8346 14.5627 40.0534 15.9453 40.8846C16.447 41.1871 16.8801 41.5412 17.2962 41.8855C17.5849 42.1215 17.8565 42.3478 18.138 42.542C20.4774 44.1675 23.7933 44.1798 28.5749 42.5814C28.9322 42.4609 29.2919 42.3379 29.6541 42.215C33.1902 41.0076 36.8486 39.7583 40.5487 40.7469C41.0626 40.8846 41.5618 41.0617 42.0439 41.2313C43.0961 41.6051 44.0946 41.9592 45.0294 41.8191C45.8027 41.7035 46.5368 41.2485 47.315 40.7666C47.917 40.3953 48.5336 40.0116 49.2311 39.7387C44.4616 39.7854 39.5111 39.7731 34.6022 39.6944C26.3676 39.5592 19.1266 39.2493 13.6671 38.7969C6.52883 38.2067 4.06703 37.528 3.03924 36.9501C2.08241 37.1739 2.00655 37.5083 1.97963 37.6263C1.77408 38.5362 3.46014 39.5936 4.66412 39.8936C6.03451 40.233 7.493 40.1075 9.03713 39.9723C9.33568 39.9477 9.63178 39.9206 9.92788 39.8985C10.4295 39.8616 10.9508 39.8346 11.4794 39.8346ZM67.4254 40.2698C69.1457 40.2698 70.8147 40.6289 72.2144 40.9977C72.743 41.1379 73.2691 41.2854 73.7953 41.4354C75.6649 41.9666 77.4317 42.4683 79.2523 42.5248C81.1978 42.5863 83.7036 41.9887 84.9345 40.1149C84.9345 40.1149 84.9345 40.1149 84.9345 40.1125C84.959 40.0756 84.9786 40.0411 84.9957 40.0166C84.9761 40.0018 84.9492 39.9821 84.9199 39.96C82.8129 38.4796 79.8323 38.4452 77.4219 38.4255C71.9722 39.0551 63.4219 39.4903 53.7754 39.6723C54.671 39.9182 55.5495 40.2649 56.4207 40.6067C58.2854 41.3395 60.0498 42.033 61.7236 41.6691C62.2081 41.5633 62.6927 41.3666 63.2066 41.1551C63.5663 41.0076 63.9407 40.8551 64.3323 40.7272C65.3503 40.3977 66.3976 40.2698 67.423 40.2698H67.4254Z" fill="#F50101"/>
<path d="M25.1343 23.7645C25.1343 24.1727 24.8064 24.5022 24.4002 24.5022C23.9939 24.5022 23.666 24.1727 23.666 23.7645C23.666 23.3563 23.9939 22.1956 24.4002 22.1956C24.8064 22.1956 25.1343 23.3563 25.1343 23.7645Z" fill="#F50101"/>
<path d="M18.2825 27.699C18.2825 28.1073 17.9546 28.4368 17.5483 28.4368C17.1421 28.4368 16.8142 28.1073 16.8142 27.699C16.8142 27.2908 17.1421 26.1302 17.5483 26.1302C17.9546 26.1302 18.2825 27.2908 18.2825 27.699Z" fill="#F50101"/>
<path d="M45.9348 28.4367C45.9348 28.845 45.6069 29.1745 45.2007 29.1745C44.7945 29.1745 44.4666 28.845 44.4666 28.4367C44.4666 28.0285 44.7945 26.8679 45.2007 26.8679C45.6069 26.8679 45.9348 28.0285 45.9348 28.4367Z" fill="#F50101"/>
<path d="M42.0195 21.5513C42.0195 21.9595 41.6916 22.2891 41.2854 22.2891C40.8792 22.2891 40.5513 21.9595 40.5513 21.5513C40.5513 21.1431 40.8792 19.9825 41.2854 19.9825C41.6916 19.9825 42.0195 21.1431 42.0195 21.5513Z" fill="#F50101"/>
<path d="M33.21 28.4367C33.21 28.845 32.8821 29.1745 32.4758 29.1745C32.0696 29.1745 31.7417 28.845 31.7417 28.4367C31.7417 28.0285 32.0696 26.8679 32.4758 26.8679C32.8821 26.8679 33.21 28.0285 33.21 28.4367Z" fill="#F50101"/>
<path d="M40.3064 31.8795C40.3064 32.2877 39.9785 32.6172 39.5723 32.6172C39.166 32.6172 38.8381 32.2877 38.8381 31.8795C38.8381 31.4713 39.166 30.3106 39.5723 30.3106C39.9785 30.3106 40.3064 31.4713 40.3064 31.8795Z" fill="#F50101"/>
<path d="M68.2036 25.24C68.2036 25.6482 67.8757 25.9777 67.4695 25.9777C67.0633 25.9777 66.7354 25.6482 66.7354 25.24C66.7354 24.8318 67.0633 23.6711 67.4695 23.6711C67.8757 23.6711 68.2036 24.8318 68.2036 25.24Z" fill="#F50101"/>
<path d="M27.8262 31.8795C27.8262 32.2877 27.4983 32.6172 27.092 32.6172C26.6858 32.6172 26.3579 32.2877 26.3579 31.8795C26.3579 31.4713 26.6858 30.3106 27.092 30.3106C27.4983 30.3106 27.8262 31.4713 27.8262 31.8795Z" fill="#F50101"/>
<path d="M33.6992 21.5513C33.6992 21.9595 33.3713 22.2891 32.9651 22.2891C32.5589 22.2891 32.231 21.9595 32.231 21.5513C32.231 21.1431 32.5589 19.9825 32.9651 19.9825C33.3713 19.9825 33.6992 21.1431 33.6992 21.5513Z" fill="#F50101"/>
<path d="M57.6812 24.9941C57.6812 25.4023 57.3532 25.7318 56.947 25.7318C56.5408 25.7318 56.2129 25.4023 56.2129 24.9941C56.2129 24.5859 56.5408 23.4252 56.947 23.4252C57.3532 23.4252 57.6812 24.5859 57.6812 24.9941Z" fill="#F50101"/>
<path d="M64.2883 34.0926C64.2883 34.5008 63.9604 34.8304 63.5542 34.8304C63.148 34.8304 62.8201 34.5008 62.8201 34.0926C62.8201 33.6844 63.148 32.5237 63.5542 32.5237C63.9604 32.5237 64.2883 33.6844 64.2883 34.0926Z" fill="#F50101"/>
<path d="M59.1494 19.83C59.1494 20.2382 58.8215 20.5677 58.4153 20.5677C58.0091 20.5677 57.6812 20.2382 57.6812 19.83C57.6812 19.4218 58.0091 18.2611 58.4153 18.2611C58.8215 18.2611 59.1494 19.4218 59.1494 19.83Z" fill="#F50101"/>
<path d="M55.968 30.6499C55.968 31.0582 55.6401 31.3877 55.2339 31.3877C54.8277 31.3877 54.4998 31.0582 54.4998 30.6499C54.4998 30.2417 54.8277 29.0811 55.2339 29.0811C55.6401 29.0811 55.968 30.2417 55.968 30.6499Z" fill="#F50101"/>
<path d="M50.095 21.0595C50.095 21.4677 49.7671 21.7972 49.3608 21.7972C48.9546 21.7972 48.6267 21.4677 48.6267 21.0595C48.6267 20.6513 48.9546 19.4906 49.3608 19.4906C49.7671 19.4906 50.095 20.6513 50.095 21.0595Z" fill="#F50101"/>
<path d="M54.8449 4.73128C54.8449 4.73128 45.6682 2.73205 45.6682 11.2109C45.6682 19.6898 55.3931 19.7587 56.1003 15.175C56.8075 10.5913 54.8449 4.73374 54.8449 4.73374V4.73128Z" fill="#EAEAE4"/>
<path d="M37.4704 4.73128C37.4704 4.73128 28.2937 2.73205 28.2937 11.2109C28.2937 19.6898 38.0186 19.7587 38.7258 15.175C39.433 10.5913 37.4704 4.73374 37.4704 4.73374V4.73128Z" fill="#EAEAE4"/>
<path d="M52.5202 19.0775C48.2035 19.0775 44.6895 15.5463 44.6895 11.2085C44.6895 6.87068 48.2035 3.33945 52.5202 3.33945C56.837 3.33945 60.351 6.87068 60.351 11.2085C60.351 15.5463 56.837 19.0775 52.5202 19.0775ZM52.5202 5.30671C49.2827 5.30671 46.6471 7.95513 46.6471 11.2085C46.6471 14.4619 49.2827 17.1103 52.5202 17.1103C55.7578 17.1103 58.3933 14.4619 58.3933 11.2085C58.3933 7.95513 55.7578 5.30671 52.5202 5.30671Z" fill="#F50101"/>
<path d="M56.4332 17.3119L52.579 14.9709C52.0382 14.6438 51.676 14.093 51.5903 13.461C51.5047 12.829 51.7029 12.1995 52.136 11.7347L52.5251 11.3216C52.5447 11.2995 52.5569 11.27 52.5569 11.2356C52.5569 11.206 52.5472 11.1495 52.4909 11.1151C51.9745 10.8028 51.6172 10.2814 51.512 9.68388C51.4068 9.08632 51.5634 8.47156 51.9427 7.99695L54.8107 4.42883L56.3328 5.66575L53.4648 9.23141C53.4404 9.26092 53.4306 9.30026 53.4379 9.33961C53.4452 9.37895 53.4648 9.40846 53.4991 9.43059C54.1329 9.81667 54.5122 10.4905 54.5122 11.2356C54.5122 11.7667 54.3115 12.2757 53.9494 12.6692L53.5578 13.0848C53.5309 13.1143 53.5187 13.1512 53.526 13.193C53.5309 13.2348 53.5529 13.2668 53.5872 13.2889L57.4414 15.6299L56.4283 17.3144L56.4332 17.3119Z" fill="#F50101"/>
<path d="M55.5792 5.67557L53.1321 9.11828L53.6215 10.3478V12.3151L53.1321 13.2299L56.9398 15.7209C56.9398 15.7209 59.4946 13.5446 59.0052 10.3478C58.5157 7.15101 55.5792 5.67557 55.5792 5.67557Z" fill="#F50101"/>
<path d="M55.8238 8.62647C56.3644 8.62647 56.8027 8.18609 56.8027 7.64284C56.8027 7.0996 56.3644 6.65921 55.8238 6.65921C55.2832 6.65921 54.845 7.0996 54.845 7.64284C54.845 8.18609 55.2832 8.62647 55.8238 8.62647Z" fill="#EAEAE4"/>
<path d="M54.8451 9.85601C55.1154 9.85601 55.3346 9.63581 55.3346 9.36419C55.3346 9.09257 55.1154 8.87238 54.8451 8.87238C54.5748 8.87238 54.3557 9.09257 54.3557 9.36419C54.3557 9.63581 54.5748 9.85601 54.8451 9.85601Z" fill="#EAEAE4"/>
<path d="M35.1457 19.0775C30.829 19.0775 27.3149 15.5463 27.3149 11.2085C27.3149 6.87068 30.829 3.33945 35.1457 3.33945C39.4624 3.33945 42.9765 6.87068 42.9765 11.2085C42.9765 15.5463 39.4624 19.0775 35.1457 19.0775ZM35.1457 5.30671C31.9082 5.30671 29.2726 7.95513 29.2726 11.2085C29.2726 14.4619 31.9082 17.1103 35.1457 17.1103C38.3833 17.1103 41.0188 14.4619 41.0188 11.2085C41.0188 7.95513 38.3833 5.30671 35.1457 5.30671Z" fill="#F50101"/>
<path d="M39.0587 17.3119L35.2045 14.9709C34.6636 14.6438 34.3015 14.093 34.2158 13.461C34.1302 12.829 34.3284 12.1995 34.7615 11.7347L35.1506 11.3216C35.1702 11.2995 35.1824 11.27 35.1824 11.2356C35.1824 11.206 35.1726 11.1495 35.1164 11.1151C34.6 10.8028 34.2427 10.2814 34.1375 9.68388C34.0323 9.08632 34.1889 8.47156 34.5682 7.99695L37.4362 4.42883L38.9583 5.66575L36.0903 9.23141C36.0658 9.26092 36.0561 9.30026 36.0634 9.33961C36.0707 9.37895 36.0903 9.40846 36.1246 9.43059C36.7584 9.81667 37.1377 10.4905 37.1377 11.2356C37.1377 11.7667 36.937 12.2757 36.5748 12.6692L36.1833 13.0848C36.1564 13.1143 36.1441 13.1512 36.1515 13.193C36.1564 13.2348 36.1784 13.2668 36.2127 13.2889L40.0669 15.6299L39.0538 17.3144L39.0587 17.3119Z" fill="#F50101"/>
<path d="M38.2047 5.67557L35.7576 9.11828L36.247 10.3478V12.3151L35.7576 13.2299L39.5653 15.7209C39.5653 15.7209 42.1201 13.5446 41.6307 10.3478C41.1412 7.15101 38.2047 5.67557 38.2047 5.67557Z" fill="#F50101"/>
<path d="M38.4493 8.62647C38.9899 8.62647 39.4282 8.18609 39.4282 7.64284C39.4282 7.0996 38.9899 6.65921 38.4493 6.65921C37.9087 6.65921 37.4705 7.0996 37.4705 7.64284C37.4705 8.18609 37.9087 8.62647 38.4493 8.62647Z" fill="#EAEAE4"/>
<path d="M37.4704 9.85601C37.7407 9.85601 37.9598 9.63581 37.9598 9.36419C37.9598 9.09257 37.7407 8.87238 37.4704 8.87238C37.2001 8.87238 36.981 9.09257 36.981 9.36419C36.981 9.63581 37.2001 9.85601 37.4704 9.85601Z" fill="#EAEAE4"/>
<path d="M24.53 9.23385C24.4223 9.23385 24.3147 9.21663 24.207 9.17975C23.6955 9.00024 23.4264 8.43957 23.605 7.92808C24.853 4.33537 27.7676 1.55169 31.3966 0.481994C34.409 -0.403274 37.583 -0.0590028 40.3335 1.45579C40.8083 1.71645 40.982 2.31401 40.7226 2.79107C40.4632 3.26813 39.8686 3.44272 39.3938 3.18206C37.1009 1.92055 34.4555 1.63284 31.9448 2.37056C28.9177 3.26075 26.4902 5.57966 25.4501 8.57727C25.3082 8.98302 24.9313 9.23631 24.5251 9.23631L24.53 9.23385Z" fill="#F50101"/>
<path d="M62.2572 8.67564C61.8754 8.67564 61.5132 8.4494 61.3542 8.07562C60.3362 5.65589 58.4397 3.77961 56.017 2.79352C53.0952 1.60333 49.7597 1.9058 47.0924 3.60502C46.6348 3.89519 46.0303 3.75994 45.7416 3.30009C45.4528 2.84025 45.5874 2.23286 46.045 1.94268C49.2434 -0.0958905 53.2469 -0.459834 56.7536 0.96889C59.6608 2.15416 61.9366 4.40422 63.1577 7.30839C63.3682 7.80758 63.1357 8.38546 62.6389 8.59695C62.5141 8.65105 62.3844 8.67564 62.2572 8.67564Z" fill="#F50101"/>
<path d="M34.3405 26.3564C34.1153 26.3564 33.8878 26.2777 33.7042 26.1203C33.2931 25.7662 33.2466 25.1465 33.5965 24.7334C33.6039 24.7236 34.3552 23.8408 34.8666 23.0317C35.1578 22.5743 35.7622 22.4366 36.2174 22.7293C36.6726 23.0219 36.8072 23.6293 36.5184 24.0867C35.9311 25.0162 35.1162 25.9728 35.0819 26.0121C34.8886 26.2384 34.6145 26.3564 34.338 26.3564H34.3405Z" fill="#F50101"/>
<path d="M52.7062 25.5301C52.5618 25.5301 52.415 25.4982 52.2755 25.4293C52.2119 25.3973 50.6996 24.6449 49.6082 23.4891C49.2362 23.0956 49.2533 22.4735 49.6449 22.0973C50.0364 21.7235 50.658 21.7407 51.0299 22.1341C51.8669 23.0219 53.1271 23.6563 53.1394 23.6612C53.6239 23.8998 53.8245 24.4899 53.5872 24.9768C53.4183 25.326 53.0684 25.5277 52.7087 25.5277L52.7062 25.5301Z" fill="#F50101"/>
<path d="M41.8336 27.7064C39.2642 27.7064 36.9639 26.74 34.7345 24.7555C34.3308 24.394 34.2916 23.7743 34.6513 23.3661C35.0086 22.9604 35.6277 22.921 36.034 23.2825C38.5031 25.4834 40.9551 26.1621 43.9822 25.4859C47.0778 24.7949 49.4417 23.0956 49.8626 22.5374C50.1881 22.1022 50.8023 22.0161 51.233 22.3432C51.6637 22.6702 51.7518 23.2874 51.4263 23.7202C50.6261 24.7875 47.7434 26.6613 44.408 27.4064C43.5197 27.6056 42.6632 27.7039 41.8361 27.7039L41.8336 27.7064Z" fill="#F50101"/>
<path d="M44.1461 33.1533C39.5725 33.1533 34.6342 26.1375 34.0518 25.2867C33.7459 24.8391 33.8585 24.2268 34.3038 23.9194C34.7492 23.6121 35.3585 23.7252 35.6644 24.1727C37.0471 26.1892 41.6623 31.7983 44.638 31.1344C47.7385 30.4409 50.2542 25.54 50.9638 23.7104C51.1596 23.2039 51.7273 22.953 52.2314 23.1498C52.7355 23.3465 52.9851 23.9145 52.7894 24.4211C52.6695 24.7285 49.821 31.9926 45.0638 33.0549C44.7604 33.1238 44.4545 33.1557 44.1461 33.1557V33.1533Z" fill="#F50101"/>
<path d="M36.543 25.1318C36.543 25.1318 40.1965 27.2048 43.8109 26.3982C47.4253 25.5916 50.7999 23.2678 50.7999 23.2678L51.3334 24.7186C51.3334 24.7186 48.7272 31.4811 44.6674 32.3885C40.6052 33.2959 36.5454 25.1342 36.5454 25.1342L36.543 25.1318Z" fill="#F50101"/>
</g>
<defs>
<clipPath id="clip0_36_12702">
<rect width="87" height="67" fill="white"/>
</clipPath>
</defs>
</svg>
