<svg width="74" height="67" viewBox="0 0 74 67" fill="none" xmlns="http://www.w3.org/2000/svg">
<g clip-path="url(#clip0_36_20732)">
<path d="M71.5932 10.463C68.7574 10.875 68.1716 11.5936 67.906 16.0553C67.8964 16.2118 67.6627 16.2118 67.6531 16.0553C67.3843 11.5936 66.7985 10.875 63.9659 10.463C63.8219 10.4406 63.8219 10.2362 63.9659 10.2138C66.8017 9.80184 67.3875 9.08323 67.6531 4.62146C67.6627 4.46497 67.8964 4.46497 67.906 4.62146C68.1748 9.08323 68.7606 9.80184 71.5932 10.2138C71.7372 10.2362 71.7372 10.4406 71.5932 10.463Z" fill="#F50101"/>
<path d="M73.9393 16.8506C72.3453 17.0805 72.0157 17.4862 71.8652 19.9965C71.8588 20.0859 71.7276 20.0859 71.7244 19.9965C71.574 17.4862 71.2443 17.0837 69.6503 16.8506C69.5703 16.8378 69.5703 16.7228 69.6503 16.7101C71.2443 16.4801 71.574 16.0745 71.7244 13.5641C71.7308 13.4747 71.862 13.4747 71.8652 13.5641C72.0157 16.0745 72.3453 16.4769 73.9393 16.7101C74.0193 16.7228 74.0193 16.8378 73.9393 16.8506Z" fill="#F50101"/>
<path d="M19.3034 33.5926C19.0089 33.5926 18.7113 33.4904 18.4712 33.286C17.9335 32.8261 17.8727 32.0212 18.3304 31.4847C18.34 31.4719 19.3226 30.3253 19.9915 29.2745C20.3724 28.6805 21.163 28.5048 21.7583 28.8817C22.3536 29.2618 22.5297 30.0506 22.152 30.6447C21.3838 31.852 20.318 33.0944 20.2732 33.1455C20.0203 33.4393 19.6619 33.5926 19.3002 33.5926H19.3034Z" fill="#F50101"/>
<path d="M43.3246 32.5195C43.1358 32.5195 42.9438 32.4779 42.7613 32.3885C42.6781 32.347 40.7001 31.3697 39.2726 29.8686C38.7861 29.3576 38.8085 28.5495 39.3206 28.0609C39.8327 27.5754 40.6457 27.5978 41.1322 28.1088C42.2268 29.2618 43.8752 30.0858 43.8912 30.0922C44.5249 30.402 44.7874 31.1685 44.4769 31.8008C44.2561 32.2544 43.7983 32.5163 43.3278 32.5163L43.3246 32.5195Z" fill="#F50101"/>
<path d="M29.104 35.346C25.7432 35.346 22.7346 34.0908 19.8187 31.5134C19.2906 31.0439 19.2394 30.2391 19.7099 29.7089C20.1772 29.1819 20.987 29.1308 21.5183 29.6003C24.7478 32.4588 27.9549 33.3403 31.9142 32.462C35.963 31.5645 39.0549 29.3576 39.6054 28.6326C40.0311 28.0673 40.8345 27.9555 41.3978 28.3803C41.9611 28.8051 42.0764 29.6067 41.6507 30.1688C40.604 31.555 36.8336 33.9886 32.4711 34.9564C31.3092 35.2151 30.189 35.3428 29.1072 35.3428L29.104 35.346Z" fill="#F50101"/>
<path d="M32.1284 42.4203C26.1463 42.4203 19.6874 33.3083 18.9256 32.2032C18.5255 31.6219 18.6727 30.8267 19.2553 30.4274C19.8378 30.0282 20.6348 30.1751 21.0348 30.7564C22.8432 33.3753 28.8797 40.6573 32.7718 39.7981C36.8271 38.8975 40.1174 32.5322 41.0456 30.156C41.3016 29.498 42.0442 29.1723 42.7035 29.4278C43.3629 29.6833 43.6893 30.4211 43.4333 31.079C43.2765 31.4782 39.5508 40.9128 33.3287 42.2925C32.9318 42.3819 32.5317 42.4234 32.1284 42.4234V42.4203Z" fill="#F50101"/>
<path d="M22.1841 32.0021C22.1841 32.0021 26.9627 34.6945 31.6901 33.6469C36.4176 32.5993 40.8313 29.5812 40.8313 29.5812L41.5291 31.4655C41.5291 31.4655 38.1203 40.2485 32.8104 41.4271C27.4972 42.6056 22.1873 32.0053 22.1873 32.0053L22.1841 32.0021Z" fill="#F50101"/>
<path d="M31.5876 67C18.1287 67 6.12933 59.897 1.72837 49.3222C0.579325 46.5532 0 43.6532 0 40.7085C0 36.1605 1.41791 31.6763 4.09689 27.7448C4.27612 27.4829 4.42336 27.2018 4.53858 26.908C5.12431 25.4037 6.22215 24.0431 7.54723 23.1776C8.55225 22.5197 9.45484 21.9224 10.3254 21.2613C16.1507 16.8474 23.7011 14.4169 31.5876 14.4169C49.0058 14.4169 63.1753 26.2117 63.1753 40.7085C63.1753 45.4896 61.6229 50.1686 58.6815 54.2407C52.9138 62.2316 42.7837 67.0032 31.5844 67.0032L31.5876 67ZM31.5876 16.9688C24.2548 16.9688 17.2549 19.2141 11.8714 23.2926C10.9336 24.0016 9.99256 24.6244 8.94913 25.3079C8.07215 25.8796 7.31678 26.8249 6.9231 27.831C6.73746 28.3037 6.50061 28.7572 6.21254 29.1756C3.82163 32.6856 2.55735 36.6715 2.55735 40.7053C2.55735 43.3146 3.07266 45.8857 4.09048 48.3417C8.09775 57.9711 19.1465 64.445 31.5844 64.445C41.8074 64.445 51.3935 59.9608 56.601 52.746C59.2256 49.1146 60.6115 44.9499 60.6115 40.7085C60.6115 27.6202 47.5911 16.972 31.5844 16.972L31.5876 16.9688Z" fill="#F50101"/>
<path d="M40.8952 59.0315C37.4033 59.0315 33.7065 58.0062 29.6352 55.9143C29.4207 55.8057 29.2127 55.6939 28.9982 55.5821C27.5771 54.8348 26.2361 54.1321 24.8309 54.0044C23.429 53.8734 21.9823 54.3174 20.4492 54.7901C18.6632 55.3394 16.8164 55.9047 14.8224 55.6428C13.4589 55.4576 12.3482 54.8635 11.6985 53.9629C11.2472 53.3369 11.0552 52.6438 10.9111 52.0402C10.5783 50.6573 10.3318 49.2456 10.1814 47.8403L10.1686 47.7094C10.1174 47.2271 10.0662 46.7704 9.91252 46.4446C9.55085 45.6845 8.51062 45.3268 7.30716 44.9148C5.84124 44.4133 4.18328 43.8416 3.28389 42.2671C2.25327 40.4658 2.8614 38.5654 3.39591 36.8887C3.53995 36.4352 3.67758 36.0072 3.7768 35.5984C4.07446 34.3751 4.05206 33.0689 4.02965 31.6828C4.01365 30.7214 3.99764 29.7281 4.09367 28.7253C4.13207 28.3388 4.20569 27.9428 4.32091 27.5468L6.78225 28.2494C6.71183 28.4985 6.66382 28.738 6.64142 28.968C6.5614 29.8303 6.5742 30.7118 6.5902 31.6444C6.61261 33.1296 6.63822 34.6626 6.26373 36.2052C6.14211 36.7034 5.98527 37.1921 5.83484 37.668C5.42195 38.9583 5.03467 40.1751 5.50837 41.0055C5.92766 41.7433 7.00309 42.1106 8.13934 42.5002C9.66927 43.0272 11.404 43.6213 12.2266 45.3555C12.5659 46.0709 12.6459 46.7991 12.7131 47.4411L12.7259 47.5688C12.8636 48.8655 13.0908 50.1718 13.4013 51.4461C13.4941 51.8326 13.5965 52.2254 13.7758 52.4713C14.0094 52.7907 14.5151 53.0271 15.1649 53.1133C16.602 53.3049 18.1063 52.8418 19.7002 52.3532C21.403 51.8294 23.1666 51.2896 25.071 51.4653C26.9818 51.6378 28.6174 52.4969 30.1953 53.3273C30.4002 53.4359 30.605 53.5445 30.813 53.6499C34.9195 55.761 38.5491 56.6776 41.9066 56.4477C42.9629 56.3742 43.6766 56.1921 44.2175 55.86C44.576 55.6396 44.9217 55.3107 45.277 54.8507C45.9075 54.0427 46.3972 53.0877 46.9125 52.0753C47.8343 50.274 48.7849 48.412 50.6381 47.2143C51.2047 46.8502 51.7872 46.5947 52.3473 46.352C52.8274 46.1412 53.2819 45.9432 53.666 45.7004C54.559 45.1351 55.2599 44.2249 55.9993 43.2572L56.0217 43.2284C56.8379 42.1585 57.6092 41.1492 58.1213 40.0314C58.9695 38.1822 59.7921 35.4291 59.3216 33.7396L61.7893 33.0529C62.6151 36.0104 60.9732 39.9548 60.4515 41.0918C59.8209 42.4715 58.9247 43.6436 58.0605 44.7774L58.0413 44.803C57.2316 45.8601 56.3162 47.0514 55.0391 47.8563C54.4886 48.2044 53.922 48.4503 53.3747 48.6899C52.885 48.9038 52.4209 49.1051 52.0272 49.3574C50.7566 50.1782 49.998 51.6601 49.1946 53.2315C48.6441 54.3078 48.0776 55.416 47.2998 56.4125C46.7557 57.1152 46.186 57.6453 45.5618 58.0286C44.3936 58.7472 43.0909 58.9197 42.0827 58.9931C41.689 59.0187 41.2953 59.0315 40.8984 59.0315H40.8952Z" fill="#F50101"/>
<path d="M43.5614 6.14488C43.5614 6.14488 31.5588 3.54831 31.5588 14.5606C31.5588 25.5729 44.2784 25.6623 45.2034 19.709C46.1284 13.7558 43.5614 6.14808 43.5614 6.14808V6.14488Z" fill="#EAEAE4"/>
<path d="M20.8366 6.14487C20.8366 6.14487 8.83398 3.54829 8.83398 14.5574C8.83398 25.5665 21.5535 25.6591 22.4785 19.7058C23.4035 13.7526 20.8366 6.14487 20.8366 6.14487Z" fill="#EAEAE4"/>
<path d="M40.5208 24.7776C34.8748 24.7776 30.2786 20.1913 30.2786 14.5574C30.2786 8.92349 34.8748 4.33716 40.5208 4.33716C46.1668 4.33716 50.763 8.92349 50.763 14.5574C50.763 20.1913 46.1668 24.7776 40.5208 24.7776ZM40.5208 6.89222C36.2863 6.89222 32.8391 10.332 32.8391 14.5574C32.8391 18.7828 36.2863 22.2226 40.5208 22.2226C44.7553 22.2226 48.2024 18.7828 48.2024 14.5574C48.2024 10.332 44.7553 6.89222 40.5208 6.89222Z" fill="#F50101"/>
<path d="M45.6387 22.4844L40.5976 19.4439C39.8902 19.0192 39.4165 18.3037 39.3045 17.4829C39.1925 16.6621 39.4517 15.8445 40.0182 15.2409L40.5271 14.7043C40.5528 14.6756 40.5688 14.6372 40.5688 14.5925C40.5688 14.5542 40.556 14.4807 40.4823 14.436C39.807 14.0304 39.3397 13.3533 39.2021 12.5772C39.0644 11.8011 39.2693 11.0027 39.7654 10.3863L43.5166 5.75201L45.5074 7.35851L41.7562 11.9895C41.7242 12.0279 41.7114 12.079 41.721 12.1301C41.7306 12.1812 41.7562 12.2195 41.801 12.2482C42.63 12.7497 43.1261 13.6248 43.1261 14.5925C43.1261 15.2824 42.8637 15.9435 42.39 16.4545L41.8778 16.9943C41.8426 17.0326 41.8266 17.0805 41.8362 17.1348C41.8426 17.1891 41.8714 17.2306 41.9163 17.2594L46.9573 20.2999L45.6323 22.4876L45.6387 22.4844Z" fill="#F50101"/>
<path d="M44.5217 7.37128L41.321 11.8426L41.9612 13.4395V15.9946L41.321 17.1827L46.3013 20.418C46.3013 20.418 49.6428 17.5915 49.0027 13.4395C48.3626 9.28757 44.5217 7.37128 44.5217 7.37128Z" fill="#F50101"/>
<path d="M44.8418 11.2039C45.5489 11.2039 46.1221 10.6319 46.1221 9.92633C46.1221 9.22077 45.5489 8.6488 44.8418 8.6488C44.1347 8.6488 43.5615 9.22077 43.5615 9.92633C43.5615 10.6319 44.1347 11.2039 44.8418 11.2039Z" fill="#EAEAE4"/>
<path d="M43.5615 12.8008C43.9151 12.8008 44.2017 12.5148 44.2017 12.162C44.2017 11.8092 43.9151 11.5233 43.5615 11.5233C43.208 11.5233 42.9214 11.8092 42.9214 12.162C42.9214 12.5148 43.208 12.8008 43.5615 12.8008Z" fill="#EAEAE4"/>
<path d="M17.7959 24.7776C12.1499 24.7776 7.55371 20.1913 7.55371 14.5574C7.55371 8.92349 12.1499 4.33716 17.7959 4.33716C23.4419 4.33716 28.0381 8.92349 28.0381 14.5574C28.0381 20.1913 23.4419 24.7776 17.7959 24.7776ZM17.7959 6.89222C13.5614 6.89222 10.1143 10.332 10.1143 14.5574C10.1143 18.7828 13.5614 22.2226 17.7959 22.2226C22.0304 22.2226 25.4776 18.7828 25.4776 14.5574C25.4776 10.332 22.0304 6.89222 17.7959 6.89222Z" fill="#F50101"/>
<path d="M22.9138 22.4844L17.8727 19.4439C17.1654 19.0192 16.6917 18.3037 16.5796 17.4829C16.4676 16.6621 16.7269 15.8445 17.2934 15.2409L17.8023 14.7043C17.8279 14.6756 17.8439 14.6372 17.8439 14.5925C17.8439 14.5542 17.8311 14.4807 17.7575 14.436C17.0821 14.0304 16.6148 13.3533 16.4772 12.5772C16.3396 11.8011 16.5444 11.0027 17.0405 10.3863L20.7917 5.75201L22.7826 7.35851L19.0314 11.9895C18.9994 12.0279 18.9866 12.079 18.9962 12.1301C19.0058 12.1812 19.0314 12.2195 19.0762 12.2482C19.9052 12.7497 20.4013 13.6248 20.4013 14.5925C20.4013 15.2824 20.1388 15.9435 19.6651 16.4545L19.153 16.9943C19.1178 17.0326 19.1018 17.0805 19.1114 17.1348C19.1178 17.1891 19.1466 17.2306 19.1914 17.2594L24.2325 20.2999L22.9074 22.4876L22.9138 22.4844Z" fill="#F50101"/>
<path d="M21.7969 7.37128L18.5962 11.8426L19.2363 13.4395V15.9946L18.5962 17.1827L23.5765 20.418C23.5765 20.418 26.918 17.5915 26.2779 13.4395C25.6377 9.28757 21.7969 7.37128 21.7969 7.37128Z" fill="#F50101"/>
<path d="M22.1169 11.2039C22.824 11.2039 23.3972 10.6319 23.3972 9.92633C23.3972 9.22077 22.824 8.6488 22.1169 8.6488C21.4099 8.6488 20.8367 9.22077 20.8367 9.92633C20.8367 10.6319 21.4099 11.2039 22.1169 11.2039Z" fill="#EAEAE4"/>
<path d="M20.8367 12.8008C21.1902 12.8008 21.4768 12.5148 21.4768 12.162C21.4768 11.8092 21.1902 11.5233 20.8367 11.5233C20.4831 11.5233 20.1965 11.8092 20.1965 12.162C20.1965 12.5148 20.4831 12.8008 20.8367 12.8008Z" fill="#EAEAE4"/>
<path d="M3.91121 11.9928C3.77038 11.9928 3.62955 11.9704 3.48872 11.9225C2.81977 11.6894 2.4677 10.9612 2.70135 10.2969C4.3369 5.62749 8.14893 2.01209 12.8956 0.625967C16.8356 -0.523809 20.9869 -0.0766735 24.5845 1.89072C25.2054 2.22927 25.4327 3.00536 25.0934 3.62497C24.7541 4.24457 23.9763 4.47133 23.3554 4.13278C20.3564 2.49435 16.8964 2.12068 13.6125 3.07882C9.65325 4.23499 6.47817 7.24676 5.11787 11.14C4.93223 11.667 4.43932 11.996 3.90801 11.996L3.91121 11.9928Z" fill="#F50101"/>
<path d="M53.2563 11.2678C52.757 11.2678 52.2833 10.974 52.0752 10.4885C50.7437 7.34577 48.2632 4.90888 45.0945 3.62816C41.2729 2.08235 36.9103 2.47519 33.4216 4.68212C32.8231 5.05899 32.0325 4.88333 31.6548 4.28609C31.2771 3.68884 31.4532 2.89997 32.0517 2.5231C36.235 -0.124579 41.4681 -0.597265 46.0547 1.25835C49.8571 2.79777 52.8338 5.72011 54.4309 9.49202C54.7062 10.1404 54.4021 10.8909 53.7524 11.1656C53.5892 11.2358 53.4195 11.2678 53.2531 11.2678H53.2563Z" fill="#F50101"/>
</g>
<defs>
<clipPath id="clip0_36_20732">
<rect width="74" height="67" fill="white"/>
</clipPath>
</defs>
</svg>
