<svg width="53" height="24" viewBox="0 0 53 24" fill="none" xmlns="http://www.w3.org/2000/svg">
<g clip-path="url(#clip0_54_494)">
<path d="M15.6416 2.11875C15.6416 2.11875 1.50781 -0.926251 1.50781 12C1.50781 24.9263 16.4859 25.035 17.5752 18.045C18.6644 11.055 15.6416 2.11875 15.6416 2.11875Z" fill="#EAEAE4"/>
<path d="M12.0609 24C5.41232 24 0 18.6187 0 12C0 5.38125 5.41232 0 12.0609 0C18.7094 0 24.1217 5.38125 24.1217 12C24.1217 18.6187 18.7094 24 12.0609 24ZM12.0609 3C7.07446 3 3.01522 7.03875 3.01522 12C3.01522 16.9613 7.07446 21 12.0609 21C17.0473 21 21.1065 16.9613 21.1065 12C21.1065 7.03875 17.0473 3 12.0609 3Z" fill="#F50101"/>
<path d="M18.0874 21.3037L12.1511 17.7338C11.3182 17.235 10.7604 16.395 10.6285 15.4313C10.4965 14.4675 10.8018 13.5075 11.4689 12.7988L12.0682 12.1688C12.0984 12.135 12.1172 12.09 12.1172 12.0375C12.1172 11.9925 12.1021 11.9063 12.0155 11.8538C11.2202 11.3775 10.6699 10.5825 10.5078 9.67125C10.3458 8.76 10.587 7.8225 11.1712 7.09875L15.5885 1.6575L17.9328 3.54375L13.5155 8.98125C13.4778 9.02625 13.4628 9.08625 13.4741 9.14625C13.4854 9.20625 13.5155 9.25125 13.5683 9.285C14.5445 9.87375 15.1287 10.9012 15.1287 12.0375C15.1287 12.8475 14.8196 13.6238 14.2618 14.2238L13.6587 14.8575C13.6173 14.8987 13.5984 14.9587 13.6098 15.0225C13.6173 15.0863 13.6512 15.135 13.704 15.1687L19.6402 18.7388L18.0798 21.3075L18.0874 21.3037Z" fill="#F50101"/>
<path d="M16.772 3.5625L13.0029 8.8125L13.7567 10.6875V13.6875L13.0029 15.0825L18.8675 18.8813C18.8675 18.8813 22.8024 15.5625 22.0486 10.6875C21.2948 5.8125 16.772 3.5625 16.772 3.5625Z" fill="#F50101"/>
<path d="M17.1492 8.0625C17.9818 8.0625 18.6568 7.39093 18.6568 6.5625C18.6568 5.73407 17.9818 5.0625 17.1492 5.0625C16.3166 5.0625 15.6416 5.73407 15.6416 6.5625C15.6416 7.39093 16.3166 8.0625 17.1492 8.0625Z" fill="#EAEAE4"/>
<path d="M15.6415 9.9375C16.0578 9.9375 16.3953 9.60171 16.3953 9.1875C16.3953 8.77329 16.0578 8.4375 15.6415 8.4375C15.2252 8.4375 14.8877 8.77329 14.8877 9.1875C14.8877 9.60171 15.2252 9.9375 15.6415 9.9375Z" fill="#EAEAE4"/>
<path d="M44.5098 2.11875C44.5098 2.11875 30.376 -0.926251 30.376 12C30.376 24.9263 45.3541 25.035 46.4433 18.045C47.5326 11.055 44.5098 2.1225 44.5098 2.1225V2.11875Z" fill="#EAEAE4"/>
<path d="M40.929 24C34.2805 24 28.8682 18.6187 28.8682 12C28.8682 5.38125 34.2767 0 40.929 0C47.5814 0 52.9899 5.38125 52.9899 12C52.9899 18.6187 47.5776 24 40.929 24ZM40.929 3C35.9426 3 31.8834 7.03875 31.8834 12C31.8834 16.9613 35.9426 21 40.929 21C45.9155 21 49.9747 16.9613 49.9747 12C49.9747 7.03875 45.9155 3 40.929 3Z" fill="#F50101"/>
<path d="M46.9555 21.3037L41.0193 17.7338C40.1863 17.235 39.6285 16.395 39.4966 15.4313C39.3647 14.4675 39.67 13.5075 40.3371 12.7988L40.9364 12.1688C40.9665 12.135 40.9854 12.09 40.9854 12.0375C40.9854 11.9925 40.9703 11.9063 40.8836 11.8538C40.0884 11.3775 39.5381 10.5825 39.376 9.67125C39.2139 8.76 39.4552 7.8225 40.0394 7.09875L44.4567 1.6575L46.801 3.54375L42.3837 8.98125C42.346 9.02625 42.3309 9.08625 42.3422 9.14625C42.3535 9.20625 42.3837 9.25125 42.4365 9.285C43.4126 9.87375 43.9968 10.9012 43.9968 12.0375C43.9968 12.8475 43.6878 13.6238 43.13 14.2238L42.5269 14.8575C42.4855 14.8987 42.4666 14.9587 42.4779 15.0225C42.4855 15.0863 42.5194 15.135 42.5721 15.1687L48.5083 18.7388L46.948 21.3075L46.9555 21.3037Z" fill="#F50101"/>
<path d="M45.6401 3.5625L41.8711 8.8125L42.6249 10.6875V13.6875L41.8711 15.0825L47.7357 18.8813C47.7357 18.8813 51.6706 15.5625 50.9167 10.6875C50.1629 5.8125 45.6401 3.5625 45.6401 3.5625Z" fill="#F50101"/>
<path d="M46.0169 8.0625C46.8495 8.0625 47.5245 7.39093 47.5245 6.5625C47.5245 5.73407 46.8495 5.0625 46.0169 5.0625C45.1843 5.0625 44.5093 5.73407 44.5093 6.5625C44.5093 7.39093 45.1843 8.0625 46.0169 8.0625Z" fill="#EAEAE4"/>
<path d="M44.5097 9.9375C44.926 9.9375 45.2635 9.60171 45.2635 9.1875C45.2635 8.77329 44.926 8.4375 44.5097 8.4375C44.0933 8.4375 43.7559 8.77329 43.7559 9.1875C43.7559 9.60171 44.0933 9.9375 44.5097 9.9375Z" fill="#EAEAE4"/>
</g>
<defs>
<clipPath id="clip0_54_494">
<rect width="53" height="24" fill="white"/>
</clipPath>
</defs>
</svg>
