<?xml version="1.0" encoding="UTF-8"?><svg id="Calque_1" xmlns="http://www.w3.org/2000/svg" viewBox="0 0 42.19 42.19"><defs><style>.cls-1{fill:#f50101;}.cls-2{fill:#eaeae4;}</style></defs><path class="cls-1" d="M40.74,14.55h0c-.27,.75-.04,1.58,.58,2.08h0c.73,.6,.9,1.66,.39,2.45h0c-.43,.67-.39,1.53,.1,2.15h0c.58,.75,.51,1.82-.17,2.48h0c-.57,.55-.72,1.4-.39,2.12h0c.4,.86,.09,1.88-.72,2.38h0c-.67,.42-1.01,1.21-.85,1.98h0c.2,.93-.33,1.86-1.22,2.16h0c-.75,.26-1.26,.96-1.27,1.75h0c-.01,.95-.73,1.74-1.68,1.84h0c-.79,.08-1.44,.65-1.62,1.42h0c-.22,.92-1.1,1.53-2.04,1.42h0c-.79-.1-1.55,.31-1.9,1.02h0c-.42,.85-1.41,1.25-2.3,.93h0c-.74-.27-1.58-.04-2.08,.57h0c-.6,.73-1.66,.9-2.45,.39h0c-.67-.43-1.53-.39-2.15,.1h0c-.75,.58-1.82,.51-2.48-.17h0c-.55-.57-1.4-.72-2.12-.39h0c-.86,.4-1.88,.09-2.38-.71h0c-.41-.68-1.21-1.02-1.98-.85h0c-.93,.2-1.86-.33-2.16-1.22h0c-.25-.75-.95-1.26-1.75-1.27h0c-.95-.01-1.74-.73-1.84-1.68h0c-.08-.79-.65-1.44-1.42-1.62h0c-.92-.22-1.53-1.1-1.41-2.04h0c.1-.79-.31-1.55-1.02-1.9h0c-.85-.42-1.25-1.41-.92-2.31h0c.27-.75,.04-1.58-.58-2.08h0c-.73-.6-.9-1.66-.39-2.45h0c.43-.67,.39-1.53-.1-2.15h0c-.58-.75-.51-1.82,.17-2.48h0c.57-.55,.72-1.4,.39-2.12h0c-.4-.86-.09-1.88,.72-2.38h0c.67-.42,1.01-1.21,.85-1.98h0c-.2-.93,.33-1.86,1.22-2.16h0c.75-.26,1.26-.96,1.27-1.75h0c.01-.95,.73-1.74,1.68-1.84h0c.79-.08,1.44-.65,1.62-1.42h0c.22-.92,1.1-1.53,2.04-1.42h0c.79,.1,1.55-.31,1.9-1.02h0c.42-.85,1.41-1.25,2.3-.93h0c.74,.27,1.58,.04,2.08-.57h0c.6-.73,1.66-.9,2.45-.39h0c.67,.43,1.53,.39,2.15-.1h0c.75-.58,1.82-.51,2.48,.17h0c.55,.57,1.4,.72,2.12,.39h0c.86-.4,1.88-.09,2.38,.71h0c.41,.68,1.21,1.02,1.98,.85h0c.93-.2,1.86,.33,2.16,1.22h0c.25,.75,.95,1.26,1.75,1.27h0c.95,.01,1.74,.73,1.84,1.68h0c.08,.79,.65,1.44,1.42,1.62h0c.92,.22,1.53,1.1,1.41,2.04h0c-.1,.79,.31,1.55,1.02,1.9h0c.85,.42,1.25,1.41,.92,2.31Z"/><path class="cls-2" d="M29.15,26.52l2.5,3.12c-.97,.77-2.08,1.41-3.32,1.91-2.85,1.14-5.36,1.42-7.52,.82-2.16-.59-3.96-1.86-5.38-3.78l-1.98,.79-1.13-2.82,1.57-.63-.27-.67c-.16-.39-.26-.68-.32-.88l-1.6,.64-1.14-2.85,2.06-.83c-.24-2.38,.23-4.54,1.38-6.48,1.16-1.94,3.09-3.45,5.81-4.54,1.11-.44,2.21-.71,3.33-.8l.16,3.92c-.62,.07-1.3,.25-2.01,.54-2.83,1.14-4.42,3.07-4.77,5.8l6.63-2.66,.5,3.11-6.86,2.75c.06,.2,.17,.5,.32,.88,.12,.31,.22,.53,.3,.66l6.4-2.57,.55,3.05-5.03,2.02c2.05,1.81,4.57,2.12,7.56,.92,.81-.33,1.57-.8,2.27-1.42Z"/></svg>