<svg width="59" height="67" viewBox="0 0 59 67" fill="none" xmlns="http://www.w3.org/2000/svg">
<g clip-path="url(#clip0_36_20723)">
<path d="M57.1682 11.0653C55.0099 10.7515 54.5641 10.2042 54.3619 6.80607C54.3546 6.68688 54.1768 6.68688 54.1695 6.80607C53.9649 10.2042 53.5191 10.7515 51.3632 11.0653C51.2536 11.0824 51.2536 11.238 51.3632 11.2551C53.5215 11.5688 53.9673 12.1162 54.1695 15.5143C54.1768 15.6335 54.3546 15.6335 54.3619 15.5143C54.5666 12.1162 55.0124 11.5688 57.1682 11.2551C57.2778 11.238 57.2778 11.0824 57.1682 11.0653Z" fill="#F50101"/>
<path d="M58.9537 16.0154C57.7406 15.8402 57.4897 15.5313 57.3752 13.6194C57.3703 13.5513 57.2704 13.5513 57.268 13.6194C57.1535 15.5313 56.9026 15.8378 55.6895 16.0154C55.6286 16.0251 55.6286 16.1127 55.6895 16.1224C56.9026 16.2975 57.1535 16.6065 57.268 18.5184C57.2729 18.5865 57.3728 18.5865 57.3752 18.5184C57.4897 16.6065 57.7406 16.3 58.9537 16.1224C59.0146 16.1127 59.0146 16.0251 58.9537 16.0154Z" fill="#F50101"/>
<path d="M49.6579 14.2008H47.5118C46.3888 14.2008 45.4022 14.9573 45.1123 16.0422C44.7055 17.5527 43.8724 19.9293 42.2671 22.1428L41.4681 15.8378C41.4413 15.6311 41.3097 15.4486 41.1173 15.3611C40.9248 15.2759 40.7056 15.293 40.5302 15.4097L40.6666 11.5859C40.6764 11.277 40.4522 11.0069 40.1429 10.9632L37.8847 10.6396C37.7191 10.6153 37.5534 10.6615 37.4219 10.7661C37.2903 10.8683 37.2075 11.0191 37.1929 11.1845L36.5985 17.4481L35.7556 14.6678L36.6302 5.66281C36.657 5.38551 36.4913 5.12523 36.2282 5.03037L33.97 4.22522C33.7898 4.15954 33.5925 4.18387 33.4317 4.28846C33.2733 4.39063 33.171 4.56333 33.1564 4.75063L33.076 5.82092L31.4439 0.432996C31.3928 0.270021 31.2783 0.136235 31.1272 0.0608282C30.9738 -0.0121459 30.7959 -0.0194433 30.64 0.0413685L27.7339 1.17004C27.4464 1.28193 27.2881 1.59085 27.366 1.88761L27.9312 4.06711L25.807 3.67062C25.6292 3.63899 25.4465 3.68521 25.3076 3.80197C25.1688 3.9163 25.0884 4.089 25.0884 4.269V8.81529L24.5159 6.27579C24.4794 6.11282 24.3771 5.97173 24.2309 5.8866C24.0872 5.80146 23.9142 5.77957 23.7534 5.82335L21.4953 6.46796C21.1908 6.55553 21.0032 6.85959 21.0641 7.17094L21.466 9.21422L19.9387 9.59612L19.8364 7.18797C19.8217 6.86202 19.5538 6.60661 19.2274 6.60661H14.5624C14.3821 6.60661 14.2141 6.68445 14.0971 6.82067C13.9826 6.95689 13.9315 7.13932 13.9607 7.31446L15.8803 18.8006C14.957 17.4749 14.3188 16.3073 13.951 15.5703C13.5295 14.7238 12.6794 14.2008 11.7318 14.2008H8.1411C7.99494 14.2008 7.85122 14.2129 7.70993 14.2397L7.69288 14.2008H2.42137C1.72711 14.2008 1.06451 14.4975 0.606545 15.0181C0.14614 15.5386 -0.0657923 16.2295 0.0194679 16.9179L6.08268 64.8862C6.23615 66.0927 7.26658 67 8.48214 67H47.0197C48.3376 67 49.4289 65.9711 49.4996 64.6551L52.1378 16.8181C52.1767 16.1395 51.9307 15.4681 51.463 14.9767C50.9953 14.483 50.3376 14.2008 49.6579 14.2008ZM47.0197 65.054H14.1873C13.9169 65.054 13.6903 64.8521 13.6562 64.587L7.86583 18.7714L7.61005 16.7476C7.58326 16.5408 7.6807 16.3949 7.73916 16.3268C7.80006 16.2611 7.93161 16.1468 8.1411 16.1468H11.7318C11.934 16.1468 12.1167 16.2587 12.2068 16.4387C13.2957 18.6157 16.5624 24.2664 22.4185 27.414C22.5842 27.504 22.7523 27.5915 22.9228 27.6742C25.2711 28.8516 28.0165 29.6178 31.1833 29.6178C34.8324 29.6178 37.6801 28.5962 39.892 27.105C40.1697 26.9202 40.4352 26.7256 40.6934 26.5261C44.8151 23.3201 46.4692 18.5111 46.9954 16.5457C47.0587 16.3097 47.2706 16.1468 47.5118 16.1468H49.6579C49.8577 16.1468 49.9892 16.2514 50.0477 16.3146C50.1061 16.3754 50.2036 16.5116 50.1938 16.7111L47.5532 64.5481C47.5386 64.8327 47.3047 65.054 47.0197 65.054ZM18.6451 7.82284L18.7328 9.89531L18.7596 10.518L18.9034 13.8894L19.164 20.0728L19.2785 22.7509C18.611 22.1258 18.002 21.4812 17.4564 20.8414L15.281 7.82284H18.6451ZM21.1177 10.5545L21.6658 16.9227L21.1567 24.3126C21.0958 24.2688 21.0373 24.225 20.9788 24.1788H20.9764L20.3771 19.9463L19.9898 10.8367L21.1177 10.5545ZM26.3064 5.00118L28.2698 5.36605L28.5962 6.62364L28.1163 10.6664L27.215 18.246L26.3064 14.2178V5.00118ZM34.3111 5.63849L35.3707 6.01552L34.8275 11.6053L34.0553 9.05124V9.04395L34.3111 5.63849ZM41.2074 23.449C40.9906 23.6826 40.7665 23.9136 40.5278 24.1374L40.3231 21.1844V21.1747L40.0454 17.1927L40.384 16.9665L40.4547 17.5065V17.5187L41.2074 23.449ZM36.3135 20.7028L36.3451 20.8098L37.931 26.0421C37.1076 26.4969 36.1966 26.8764 35.188 27.1537L34.696 25.2612V15.3684L34.9834 16.317L35.4463 17.8471L36.3135 20.7028ZM22.6158 20.8682L22.8862 16.9252V16.9203L22.9106 16.5846L23.0714 14.2397L23.1688 12.8289L23.4368 12.9408L24.5671 13.4127L24.3235 17.4603L24.1773 19.8782L24.0312 22.2961L23.8119 25.9399C23.7608 25.9156 23.7072 25.8888 23.656 25.8621C23.4392 25.7502 23.2248 25.6358 23.0153 25.5166C22.7961 25.3926 22.5817 25.2661 22.3722 25.1347L22.343 24.8185V24.8137L22.6158 20.8682ZM29.4366 9.86126L29.5073 10.1337H29.405L29.4366 9.86126ZM30.5743 11.817V27.6597C30.5353 27.6597 30.4963 27.6572 30.4573 27.6548C30.2527 27.6475 30.0505 27.6353 29.8508 27.6207C29.6705 27.6061 29.4927 27.5891 29.3148 27.5696C29.1833 27.5551 29.0518 27.538 28.9226 27.5186L28.9592 25.991L29.3148 11.3499H30.5743V11.817ZM31.7923 18.9246V18.6084L31.9214 17.003L32.07 15.147L32.2161 13.3081L32.5084 13.3859L33.1077 13.544L33.478 13.6437V27.5088C32.9396 27.5891 32.3793 27.6402 31.7923 27.6597V18.9246ZM25.6974 17.0589L26.3064 19.7614L26.7838 21.8752L27.1858 23.6631L27.3831 24.5339L27.7388 26.1102L27.7095 27.3069C27.1809 27.1975 26.6718 27.0588 26.1748 26.9007H26.1724L25.2565 22.2206L25.3076 21.3766L25.5951 16.6041L25.6974 17.0589ZM39.4291 12.0894L39.2805 16.2368L39.0735 16.3754C38.8932 16.497 38.7885 16.7062 38.8055 16.9252L39.1027 21.2014L38.9663 24.9718L38.959 25.2199L38.7203 24.4464V24.4391L38.7154 24.4342L37.5315 20.5252V20.5203L38.3451 11.9337L39.4291 12.0894ZM33.802 12.4129V12.4178L33.819 12.4737L33.7971 12.4689L33.2003 12.3108L32.601 12.1502L31.8239 11.9435C31.8239 11.9435 31.802 11.9386 31.7923 11.9386V10.7418C31.7923 10.4061 31.5194 10.1337 31.1833 10.1337H30.7667L29.8337 6.54093L29.2539 4.31279L28.6815 2.10654L30.4671 1.41328L32.8227 9.18746L33.3123 10.8051V10.8099L33.802 12.4129ZM23.1566 11.5056L22.3674 7.48473L23.4684 7.17094L24.5793 12.0991L23.1566 11.5056ZM8.48214 65.054C8.24585 65.054 8.0461 64.8765 8.01687 64.643L1.95365 16.6746C1.92929 16.4922 2.01455 16.3633 2.06815 16.3049C2.1193 16.2465 2.23623 16.1468 2.42137 16.1468H5.71728C5.65394 16.4216 5.63933 16.7062 5.67587 16.9908L11.722 64.8302C11.7318 64.9057 11.744 64.9811 11.761 65.054H8.48214Z" fill="#F50101"/>
<path d="M37.9261 33.6557C34.1235 33.6557 31.0298 36.7449 31.0298 40.542C31.0298 44.3391 34.1235 47.4284 37.9261 47.4284C41.7287 47.4284 44.8224 44.3391 44.8224 40.542C44.8224 36.7449 41.7287 33.6557 37.9261 33.6557ZM37.9261 45.4824C35.1978 45.4824 32.9786 43.2664 32.9786 40.542C32.9786 37.8177 35.1978 35.6017 37.9261 35.6017C38.2745 35.6017 38.6155 35.6382 38.9444 35.7063L37.3293 37.7033C36.9785 38.1387 36.8348 38.7031 36.9322 39.2553C37.0297 39.805 37.361 40.2842 37.8384 40.5493L37.5022 40.9045C37.1003 41.3326 36.9152 41.9115 36.9956 42.4929C37.0759 43.0742 37.4097 43.5802 37.9115 43.8818L39.8895 45.0762C39.2878 45.3364 38.6228 45.4824 37.9261 45.4824ZM41.6264 37.4795C41.6264 37.9466 41.2488 38.326 40.7811 38.326H40.7738C40.3402 38.3212 39.987 37.9928 39.9407 37.572C39.9383 37.5404 39.9358 37.5112 39.9358 37.4795C39.9358 37.1414 40.1356 36.8495 40.4255 36.7158C40.5083 36.6744 40.6008 36.6501 40.6958 36.6403C40.7251 36.6379 40.7519 36.6355 40.7811 36.6355C40.8493 36.6355 40.9175 36.6428 40.9809 36.6598C40.9833 36.6598 40.9857 36.6622 40.9857 36.6622C41.2707 36.7303 41.4973 36.9468 41.585 37.2217C41.6118 37.3044 41.6264 37.3895 41.6264 37.4795ZM39.9358 39.3817C39.702 39.3817 39.5119 39.192 39.5119 38.9585C39.5119 38.725 39.702 38.5352 39.9358 38.5352C40.1697 38.5352 40.3572 38.725 40.3572 38.9585C40.3572 39.192 40.1697 39.3817 39.9358 39.3817Z" fill="#F50101"/>
<path d="M23.1565 47.4211C23.8289 47.4016 24.4768 47.28 25.0883 47.0756C27.8263 46.1659 29.8068 43.5802 29.8068 40.542C29.8068 37.2047 27.4171 34.4146 24.2576 33.7895C23.8216 33.7019 23.3733 33.6557 22.9129 33.6557C22.7059 33.6557 22.5012 33.6654 22.2991 33.6849C18.7815 33.9938 16.0166 36.9517 16.0166 40.542C16.0166 44.3391 19.1103 47.4284 22.9129 47.4284C22.9958 47.4284 23.0761 47.4259 23.1565 47.4211ZM22.9129 35.6017C23.2613 35.6017 23.6023 35.6382 23.9312 35.7063L22.5329 37.4333L22.3161 37.7033C21.9653 38.1387 21.8192 38.7031 21.9166 39.2553C22.0067 39.7661 22.3015 40.2161 22.7254 40.4861L22.7351 40.6418L22.4866 40.9045C22.0847 41.3326 21.8996 41.9115 21.9799 42.4929C22.0603 43.0742 22.3941 43.5802 22.8959 43.8818L22.9373 43.9061L24.8739 45.0762C24.3088 45.3218 23.6876 45.4654 23.0347 45.4799C22.9958 45.4824 22.9543 45.4824 22.9129 45.4824C20.1846 45.4824 17.9654 43.2664 17.9654 40.542C17.9654 37.9831 19.9215 35.8741 22.4209 35.6284C22.5816 35.609 22.7473 35.6017 22.9129 35.6017ZM24.9202 39.3817C24.7887 39.3817 24.6717 39.3209 24.5986 39.2285C24.5353 39.1555 24.4988 39.0607 24.4988 38.9585C24.4988 38.8734 24.5231 38.7931 24.567 38.7274C24.6425 38.6106 24.7716 38.5352 24.9202 38.5352C25.1541 38.5352 25.3441 38.725 25.3441 38.9585C25.3441 39.192 25.1541 39.3817 24.9202 39.3817ZM26.6132 37.4795C26.6132 37.9466 26.2332 38.326 25.7655 38.326H25.7582C25.327 38.3212 24.9713 37.9928 24.9251 37.572C24.9226 37.5404 24.9202 37.5112 24.9202 37.4795C24.9202 37.1414 25.1199 36.8495 25.4098 36.7158C25.4927 36.6744 25.5852 36.6501 25.6802 36.6403C25.707 36.6379 25.7363 36.6355 25.7655 36.6355C25.8361 36.6355 25.9043 36.6452 25.9701 36.6622C26.2551 36.7303 26.4841 36.9468 26.5718 37.2217C26.5986 37.3044 26.6132 37.3895 26.6132 37.4795Z" fill="#F50101"/>
<path d="M20.187 33.0743C20.8643 32.8773 21.5536 32.7654 22.2406 32.7386C22.9008 32.7167 23.5585 32.7727 24.204 32.904C25.0055 33.0694 25.7874 33.3565 26.5255 33.7603C26.9981 34.0181 27.5901 33.8454 27.8483 33.3735C28.1065 32.9016 27.9311 32.3105 27.4609 32.0527C26.3915 31.4664 25.2491 31.0845 24.0773 30.9045C23.4318 30.8072 22.7765 30.7708 22.1188 30.7975C21.2881 30.8316 20.4574 30.9678 19.6389 31.2062C16.46 32.1354 13.9119 34.5557 12.8181 37.6814C12.6403 38.1874 12.9083 38.742 13.4174 38.9195C13.5246 38.956 13.6318 38.9755 13.7389 38.9755C14.1409 38.9755 14.5185 38.7225 14.6573 38.3211C15.544 35.7889 17.6098 33.8259 20.187 33.0743Z" fill="#F50101"/>
<path d="M41.6314 31.6294C38.5645 30.3864 35.0615 30.7026 32.2601 32.4759C31.807 32.7629 31.6706 33.3638 31.958 33.8186C32.2479 34.2711 32.8496 34.4049 33.3027 34.1178C35.5731 32.6827 38.4135 32.4248 40.9006 33.4319C42.9615 34.2662 44.5741 35.8522 45.4413 37.9003C45.5997 38.2701 45.9602 38.4939 46.3402 38.4939C46.4669 38.4939 46.596 38.4695 46.7202 38.416C47.2147 38.2068 47.4462 37.6352 47.2367 37.1414C46.1673 34.6165 44.177 32.6584 41.6314 31.6294Z" fill="#F50101"/>
<path d="M37.1441 53.3392C37.1441 53.3392 36.3037 52.9184 35.6216 52.3079C35.607 52.2957 35.5899 52.2811 35.5753 52.2665C35.4998 52.1984 35.4267 52.1254 35.3561 52.0525C34.9858 51.6633 34.3695 51.6462 33.9797 52.016C33.7459 52.2349 33.646 52.5438 33.685 52.8382C32.8689 53.4657 31.1735 54.446 29.1443 54.8936C27.8532 55.1806 26.6839 55.1782 25.5755 54.8668C24.8861 54.6771 24.2211 54.3682 23.5634 53.9352C23.3661 53.8063 23.1687 53.6652 22.9739 53.5119C23.0323 53.1422 22.8691 52.7554 22.533 52.5438C22.0799 52.2544 21.4782 52.3881 21.1883 52.843C21.1176 52.9549 21.0397 53.0692 20.9617 53.1787L20.9252 53.2298C20.8034 53.4049 20.6767 53.5752 20.5598 53.7236C20.533 53.7552 20.5062 53.7892 20.4843 53.8233C20.2675 54.0957 20.1043 54.2855 20.1018 54.2879C19.751 54.6966 19.7998 55.312 20.2066 55.6598C20.3917 55.8179 20.6158 55.8958 20.8399 55.8958C20.9471 55.8958 21.0567 55.8787 21.159 55.8423C21.7705 56.6401 22.7278 57.8004 23.8728 58.8804C24.5086 59.4812 25.2028 60.0553 25.9287 60.5296C27.0176 61.2448 28.1796 61.7313 29.3197 61.7313C29.5925 61.7313 29.8653 61.7045 30.1357 61.6437C33.3561 60.9286 35.5704 57.0269 36.4645 55.1514C36.5473 55.1758 36.6301 55.1855 36.7129 55.1855C37.0735 55.1855 37.4194 54.9836 37.5875 54.6406C37.8262 54.1566 37.6264 53.5752 37.1441 53.3392Z" fill="#F50101"/>
</g>
<defs>
<clipPath id="clip0_36_20723">
<rect width="59" height="67" fill="white"/>
</clipPath>
</defs>
</svg>
